<?xml version="1.0" encoding="iso-8859-1"?>
<!-- Generator: Adobe Illustrator 19.0.0, SVG Export Plug-In . SVG Version: 6.00 Build 0)  -->
<svg version="1.1" id="Capa_1" xmlns="http://www.w3.org/2000/svg" xmlns:xlink="http://www.w3.org/1999/xlink" x="0px" y="0px"
	 viewBox="0 0 511.99 511.99" style="enable-background:new 0 0 511.99 511.99;" xml:space="preserve">
<g>
	<path style="fill:#D84315;" d="M149.674,332.81c0.017,28.125-19.609,52.445-47.103,58.367c-4.147,0.939-8.38,1.391-12.629,1.365
		c-11.648,0.034-23.057-3.379-32.767-9.813l39.594-91.646l7.083-16.298C130.713,281.193,149.665,305.197,149.674,332.81z"/>
	<path style="fill:#D84315;" d="M242.941,225.804c-26.692,26.649-69.929,26.624-96.579-0.068
		c-5.436-5.444-9.916-11.767-13.244-18.705v-0.085l37.802-87.38l2.987-6.997h0.085c35.891-11.452,74.264,8.354,85.724,44.236
		C267.474,181.133,261.006,207.756,242.941,225.804z"/>
</g>
<g>
	<path style="fill:#FF5722;" d="M127.146,342.965c0.068,19.097-9.088,37.043-24.576,48.213c-4.147,0.939-8.38,1.391-12.629,1.365
		c-11.648,0.034-23.057-3.379-32.767-9.813l39.594-91.646C115.549,301.587,127.18,321.444,127.146,342.965z"/>
	<path style="fill:#FF5722;" d="M220.414,235.959c-2.867,2.918-6.007,5.547-9.387,7.851c-31.402,7.723-63.914-7.629-77.908-36.778
		v-0.085l37.802-87.38c18.526-0.452,36.428,6.733,49.493,19.882c26.931,26.291,27.938,68.923,1.655,95.853
		C221.677,235.694,221.293,236.078,220.414,235.959z"/>
</g>
<path d="M89.941,401.076c-13.329,0.034-26.376-3.874-37.495-11.23c-3.447-2.287-4.753-6.707-3.115-10.496l46.685-107.945
	c1.638-3.806,5.768-5.879,9.796-4.915c36.65,8.747,59.272,45.55,50.525,82.2C149.008,379.419,121.54,401.093,89.941,401.076z
	 M68.037,379.103c25.548,12.109,56.072,1.203,68.18-24.345s1.203-56.072-24.345-68.18c-1.058-0.503-2.133-0.964-3.217-1.391
	L68.037,379.103z"/>
<path d="M194.712,254.373c-29.576-0.043-56.507-17.024-69.307-43.681c-0.546-1.143-0.828-2.389-0.828-3.661
	c0-1.195,0.239-2.372,0.7-3.473l40.789-94.377c1.075-2.483,3.251-4.301,5.879-4.924c40.507-12.527,83.497,10.154,96.024,50.662
	c12.527,40.507-10.155,83.497-50.662,96.024c-7.304,2.261-14.907,3.413-22.553,3.43H194.712z M142.531,206.673
	c10.598,18.875,30.54,30.583,52.18,30.626h0.051c15.821,0.026,30.993-6.289,42.137-17.527l0.017-0.017
	c23.313-23.304,23.321-61.098,0.017-84.41c-14.856-14.856-36.428-20.812-56.797-15.684L142.531,206.673z"/>
<path style="fill:#FFEB3A;" d="M375.633,129.208c-51.37-51.37-116.819-77.396-176.125-75.775l-25.514,59.135
	c35.891-11.375,74.205,8.508,85.571,44.39c11.375,35.891-8.508,74.205-44.39,85.571c-32.375,10.257-67.37-4.881-82.055-35.507
	l-28.757,66.644l-0.512,1.109c32.068,7.663,51.848,39.867,44.193,71.935c-6.425,26.88-30.463,45.84-58.103,45.823
	c-11.648,0.034-23.057-3.379-32.767-9.813l-4.949,11.52l-36.01,83.369c-1.86,4.36,0.162,9.404,4.523,11.264
	c2.15,0.922,4.591,0.922,6.741,0l161.789-69.887v67.412c0.026,9.446,7.697,17.075,17.143,17.049c0.947,0,1.894-0.085,2.824-0.239
	c8.431-1.707,14.404-9.233,14.165-17.834V444.16c0.239,9.421,8.072,16.87,17.493,16.631c9.25-0.23,16.631-7.799,16.64-17.058
	v-54.271l85.332-36.863v57.002c0.026,9.446,7.697,17.075,17.143,17.049c0.947,0,1.894-0.085,2.824-0.239
	c8.431-1.707,14.404-9.233,14.165-17.834v-41.215c0.239,9.421,8.072,16.87,17.493,16.631c9.25-0.23,16.631-7.799,16.64-17.058
	v-43.775l40.362-17.493C453.114,246.284,427.088,180.664,375.633,129.208z M258.557,325.301c-9.992,9.992-26.188,9.992-36.181,0
	c-9.992-9.992-9.992-26.188,0-36.181c9.992-9.992,26.188-9.992,36.181,0C268.541,299.113,268.541,315.309,258.557,325.301z
	 M374.267,270.347c-14.984,14.984-39.287,14.984-54.271,0c-14.984-14.984-14.984-39.287,0-54.271
	c14.984-14.984,39.287-14.984,54.271,0c14.984,14.942,15.027,39.201,0.085,54.186C374.319,270.296,374.293,270.322,374.267,270.347z
	"/>
<path d="M206.334,511.99c-6.792,0-13.209-2.654-18.048-7.458c-4.855-4.821-7.535-11.255-7.552-18.099v-54.459L30.858,496.716
	c-4.301,1.835-9.199,1.835-13.465,0.017c-4.215-1.792-7.467-5.128-9.173-9.369c-1.707-4.25-1.647-8.9,0.145-13.098l40.959-94.906
	c0.998-2.321,2.978-4.087,5.402-4.804c2.423-0.734,5.043-0.333,7.159,1.067c8.286,5.495,17.928,8.388,27.886,8.388
	c0.06,0,0.111,0,0.179,0c23.808,0,44.262-16.153,49.791-39.278c6.553-27.443-10.436-55.099-37.87-61.652
	c-2.492-0.589-4.582-2.278-5.692-4.574c-1.109-2.295-1.143-4.983-0.068-7.304l0.512-1.109l28.672-66.439
	c1.323-3.072,4.318-5.086,7.663-5.154c3.695,0.188,6.417,1.835,7.868,4.838c12.774,26.624,43.63,39.969,71.781,31.061
	c31.342-9.933,48.767-43.519,38.843-74.862c-9.933-31.342-43.511-48.767-74.862-38.835c-3.191,1.015-6.664,0.068-8.909-2.406
	c-2.244-2.483-2.833-6.041-1.502-9.105l25.514-59.135c1.314-3.046,4.275-5.06,7.603-5.154
	c64.502-1.86,130.882,26.769,182.397,78.266c51.566,51.558,80.127,118.159,78.36,182.738c-0.094,3.319-2.099,6.272-5.146,7.603
	l-35.216,15.257v38.177c-0.017,14.003-10.974,25.233-24.96,25.591c-3.149,0.034-6.263-0.418-9.173-1.442v17.493
	c0.358,12.544-8.473,23.654-21.009,26.197c-1.69,0.29-3.396,0.435-4.582,0.41c-14.08,0-25.574-11.452-25.608-25.557v-44.04
	l-68.3,29.482v48.665c0,14.003-10.957,25.233-24.951,25.591c-3.183-0.009-6.272-0.418-9.182-1.442v17.493
	c0.358,12.535-8.473,23.654-21,26.197C209.227,511.862,207.631,511.871,206.334,511.99z M189.259,410.462
	c1.638,0,3.277,0.478,4.685,1.399c2.398,1.587,3.848,4.258,3.848,7.134v67.412c0,2.27,0.905,4.412,2.526,6.024
	c1.613,1.604,3.755,2.492,6.042,2.492c0.555,0.026,0.973-0.043,1.442-0.128c4.104-0.836,7.185-4.719,7.065-9.173v-41.454
	c0-4.668,3.755-8.473,8.422-8.533c4.531,0.051,8.525,3.644,8.636,8.32c0.06,2.287,1.007,4.403,2.662,5.973
	c1.647,1.57,3.934,2.577,6.084,2.338c4.668-0.119,8.328-3.857,8.328-8.525v-54.271c0-3.405,2.022-6.485,5.154-7.833l85.332-36.855
	c2.628-1.135,5.666-0.887,8.072,0.7c2.398,1.587,3.84,4.258,3.84,7.134v57.002c0.009,4.693,3.848,8.516,8.567,8.516
	c0,0,0.009,0,0.017,0c0.495,0,0.956-0.043,1.425-0.128c4.096-0.836,7.185-4.719,7.057-9.173v-41.454
	c0-4.676,3.755-8.473,8.422-8.533c0.043,0,0.077,0,0.111,0c4.625,0,8.414,3.695,8.533,8.328c0.051,2.278,0.99,4.395,2.654,5.965
	c1.638,1.57,3.848,2.628,6.093,2.338c4.668-0.119,8.32-3.866,8.328-8.533v-43.767c0-3.396,2.014-6.477,5.146-7.833l35.285-15.291
	c-0.137-57.48-27.315-118.697-73.42-164.801c-46.753-46.753-106.4-73.283-164.443-73.351l-16.921,39.21
	c34.96-2.867,68.462,18.543,79.47,53.281c12.774,40.319-9.634,83.514-49.953,96.289c-30.643,9.728-63.786-1.092-83.199-25.412
	l-19.106,44.287c30.839,12.373,48.844,45.883,40.9,79.154c-7.373,30.839-34.662,52.377-66.363,52.377c-0.102,0.009-0.162,0-0.239,0
	c-9.898,0-19.584-2.15-28.458-6.289l-37.256,86.202l161.832-69.844C186.964,410.693,188.116,410.462,189.259,410.462z
	 M240.467,341.326c-9.113,0-17.681-3.55-24.123-9.992c-13.303-13.303-13.303-34.952,0-48.247c13.295-13.295,34.935-13.312,48.247,0
	c13.295,13.303,13.295,34.952,0,48.247l0,0C258.148,337.777,249.572,341.326,240.467,341.326z M240.467,290.161
	c-4.557,0-8.84,1.775-12.057,4.992c-6.647,6.647-6.647,17.467,0,24.115c6.656,6.656,17.467,6.639,24.115,0
	c6.647-6.647,6.647-17.467,0-24.115C249.299,291.936,245.015,290.161,240.467,290.161z M347.132,290.119
	c-12.535,0-24.32-4.872-33.177-13.738c-18.295-18.287-18.295-48.042,0-66.337c18.304-18.287,48.059-18.287,66.337,0
	c18.287,18.235,18.329,47.957,0.094,66.252c0,0-0.085,0.085-0.094,0.085C371.443,285.238,359.667,290.119,347.132,290.119z
	 M347.132,213.388c-7.646,0-15.291,2.91-21.111,8.721c-11.631,11.631-11.631,30.566,0,42.197c11.272,11.272,30.933,11.289,42.205,0
	l0,0c0.154-0.154,0.358-0.341,0.529-0.486c11.144-11.213,11.119-30.114-0.521-41.71
	C362.415,216.298,354.769,213.388,347.132,213.388z"/>
<path style="fill:#FFB301;" d="M494.5,287.158l-17.664,7.595l-25.344,10.922c1.621-59.391-24.405-125.011-75.86-176.466
	c-51.37-51.37-116.819-77.396-176.125-75.775l11.008-25.429l7.509-17.493C353.566-6.657,477.357,89.307,494.517,224.848
	C497.137,245.533,497.128,266.473,494.5,287.158z"/>
<path style="fill:#FEC108;" d="M476.836,294.752l-25.344,10.922c1.621-59.391-24.405-125.011-75.86-176.466
	c-51.37-51.37-116.819-77.396-176.125-75.775l11.008-25.429C346.62,17.005,465.863,118.414,476.87,254.518
	C477.946,267.907,477.937,281.364,476.836,294.752z"/>
<path d="M451.493,314.208c-4.71,0-8.533-3.823-8.533-8.533c0-0.077,0-0.154,0-0.23c1.604-59.024-25.813-122.656-73.368-170.194
	c-48.204-48.204-110.3-74.819-169.853-73.283c-2.918,0.128-5.692-1.297-7.296-3.738c-1.638-2.415-1.92-5.495-0.768-8.166
	l18.517-42.922c1.195-2.773,3.763-4.702,6.758-5.086C357.167-15.702,485.224,83.573,502.982,223.79
	c2.714,21.401,2.705,43.05-0.017,64.451c-0.384,2.995-2.321,5.564-5.094,6.758l-42.999,18.517
	C453.805,313.969,452.653,314.208,451.493,314.208z M212.452,44.96c60.219,2.167,121.214,30.216,169.205,78.215
	c46.455,44.688,74.409,105.214,78.309,169.563l26.624-11.469C500.584,150.098,405.593,32.416,274.42,18.43
	c-16.793-1.792-33.723-1.801-50.516-0.017L212.452,44.96z"/>
<g>
	<path style="fill:#C52828;" d="M374.267,270.347c-14.984,14.984-39.287,14.984-54.271,0c-14.984-14.984-14.984-39.287,0-54.271
		c0.939-0.939,1.877-1.792,2.901-2.645c16.443-13.38,40.627-10.888,53.998,5.564C389.311,234.252,388.168,256.43,374.267,270.347z"
		/>
	<path style="fill:#C52828;" d="M258.557,325.301c-4.301,4.343-10.035,6.98-16.128,7.424c-7.441,0.546-14.762-2.159-20.053-7.424
		c-9.608-9.574-10.018-24.994-0.939-35.071c0.265-0.41,0.58-0.776,0.939-1.109c9.992-9.992,26.188-9.992,36.181,0
		C268.55,299.113,268.55,315.309,258.557,325.301L258.557,325.301z"/>
</g>
<g>
	<path style="fill:#F44335;" d="M348.668,278.881c-0.939,0.939-1.877,1.792-2.901,2.645c-9.711-0.273-18.935-4.275-25.77-11.178
		c-14.984-14.942-15.027-39.201-0.085-54.186c0.026-0.026,0.051-0.051,0.085-0.085c0.939-0.939,1.877-1.792,2.901-2.645
		c9.711,0.273,18.935,4.275,25.77,11.178c14.984,14.942,15.027,39.201,0.085,54.186
		C348.719,278.829,348.693,278.855,348.668,278.881z"/>
	<path style="fill:#F44335;" d="M242.429,332.725c-7.441,0.546-14.762-2.159-20.053-7.424c-9.608-9.574-10.018-24.994-0.939-35.071
		c7.441-0.546,14.762,2.159,20.053,7.424C251.091,307.228,251.509,322.647,242.429,332.725z"/>
</g>
<path d="M347.132,290.102c-25.915-0.009-46.907-21.017-46.898-46.933c0.009-25.915,21.017-46.907,46.933-46.898
	c25.915,0.009,46.907,21.017,46.898,46.933c-0.009,12.45-4.958,24.388-13.764,33.186
	C371.503,285.187,359.565,290.119,347.132,290.102z M347.132,213.346c-16.478-0.017-29.849,13.337-29.866,29.815
	c-0.009,7.936,3.149,15.547,8.764,21.154c11.793,11.298,30.404,11.298,42.197,0l0,0c11.656-11.673,11.639-30.583-0.026-42.239
	C362.611,216.494,355.033,213.354,347.132,213.346z"/>
<path d="M189.268,427.529c-4.71,0-8.533-3.814-8.533-8.525c0,0,0,0,0-0.009v-9.387c-0.009-4.71-3.823-8.525-8.533-8.533
	c-4.71,0-8.533-3.823-8.533-8.533s3.823-8.533,8.533-8.533c14.131,0.017,25.583,11.469,25.6,25.6v9.387
	C197.801,423.706,193.978,427.529,189.268,427.529L189.268,427.529z"/>
<path id="SVGCleanerId_0" d="M223.4,452.488c-4.608,0.102-8.431-3.558-8.533-8.166c0-0.051,0-0.102,0-0.154v-8.96
	c0-4.71,3.823-8.533,8.533-8.533s8.533,3.823,8.533,8.533v8.533C231.951,448.495,228.153,452.386,223.4,452.488z"/>
<g>
	<path id="SVGCleanerId_0_1_" d="M223.4,452.488c-4.608,0.102-8.431-3.558-8.533-8.166c0-0.051,0-0.102,0-0.154v-8.96
		c0-4.71,3.823-8.533,8.533-8.533s8.533,3.823,8.533,8.533v8.533C231.951,448.495,228.153,452.386,223.4,452.488z"/>
</g>
<path d="M342.865,361.141c-4.71,0-8.533-3.814-8.533-8.525c0,0,0,0,0-0.009V332.81c-0.009-4.71-3.823-8.525-8.533-8.533
	c-4.71,0-8.533-3.823-8.533-8.533c0-4.71,3.823-8.533,8.533-8.533c14.131,0.017,25.583,11.469,25.6,25.6v19.797
	C351.398,357.318,347.576,361.141,342.865,361.141L342.865,361.141z"/>
<path id="SVGCleanerId_1" d="M376.998,375.69c-4.608,0.102-8.431-3.558-8.533-8.166c0-0.051,0-0.102,0-0.154v-8.96
	c0-4.71,3.823-8.533,8.533-8.533c4.71,0,8.533,3.823,8.533,8.533v8.533C385.548,371.696,381.751,375.587,376.998,375.69z"/>
<g>
	<path id="SVGCleanerId_1_1_" d="M376.998,375.69c-4.608,0.102-8.431-3.558-8.533-8.166c0-0.051,0-0.102,0-0.154v-8.96
		c0-4.71,3.823-8.533,8.533-8.533c4.71,0,8.533,3.823,8.533,8.533v8.533C385.548,371.696,381.751,375.587,376.998,375.69z"/>
</g>
<path d="M240.467,341.318c-18.833-0.009-34.099-15.291-34.082-34.124c0.009-18.833,15.291-34.099,34.124-34.082
	c18.833,0.009,34.099,15.292,34.082,34.124c-0.009,9.045-3.601,17.715-10.001,24.106
	C258.199,337.742,249.512,341.326,240.467,341.318z M240.467,290.161c-9.412,0.009-17.041,7.646-17.032,17.058
	c0.009,9.412,7.646,17.041,17.058,17.032c9.412-0.009,17.041-7.646,17.032-17.058c0-4.523-1.801-8.857-5-12.049
	C249.324,291.953,244.989,290.161,240.467,290.161z"/>
<path d="M411.131,331.701c-4.71,0-8.533-3.814-8.533-8.525c0,0,0,0,0-0.009v-10.496c0-4.71,3.823-8.533,8.533-8.533
	s8.533,3.823,8.533,8.533v10.496C419.664,327.878,415.841,331.701,411.131,331.701L411.131,331.701z"/>
<g>
</g>
<g>
</g>
<g>
</g>
<g>
</g>
<g>
</g>
<g>
</g>
<g>
</g>
<g>
</g>
<g>
</g>
<g>
</g>
<g>
</g>
<g>
</g>
<g>
</g>
<g>
</g>
<g>
</g>
</svg>
